<mxfile host="Electron" agent="Mozilla/5.0 (Windows NT 10.0; Win64; x64) AppleWebKit/537.36 (KHTML, like Gecko) draw.io/24.7.17 Chrome/128.0.6613.36 Electron/32.0.1 Safari/537.36" version="24.7.17">
  <diagram name="第 1 页" id="sVmkJF95uzmY4jE1sGfJ">
    <mxGraphModel dx="673" dy="887" grid="1" gridSize="10" guides="1" tooltips="1" connect="1" arrows="1" fold="1" page="1" pageScale="1" pageWidth="827" pageHeight="1169" math="0" shadow="0">
      <root>
        <mxCell id="0" />
        <mxCell id="1" parent="0" />
        <mxCell id="YYFYy1Fa-YksLg5kjB6h-83" value="" style="endArrow=classic;html=1;rounded=0;entryX=0.16;entryY=0.508;entryDx=0;entryDy=0;entryPerimeter=0;" edge="1" parent="1">
          <mxGeometry width="50" height="50" relative="1" as="geometry">
            <mxPoint x="1833" y="793.6600000000001" as="sourcePoint" />
            <mxPoint x="1994.0000000000005" y="793.6399999999999" as="targetPoint" />
          </mxGeometry>
        </mxCell>
        <mxCell id="YYFYy1Fa-YksLg5kjB6h-116" value="" style="endArrow=classic;html=1;rounded=0;exitX=0.5;exitY=0.937;exitDx=0;exitDy=0;exitPerimeter=0;endSize=8;" edge="1" parent="1">
          <mxGeometry width="50" height="50" relative="1" as="geometry">
            <mxPoint x="2034.07" y="831" as="sourcePoint" />
            <mxPoint x="2034.07" y="870" as="targetPoint" />
          </mxGeometry>
        </mxCell>
        <mxCell id="YYFYy1Fa-YksLg5kjB6h-117" value="" style="endArrow=classic;html=1;rounded=0;exitX=0.461;exitY=0.937;exitDx=0;exitDy=0;exitPerimeter=0;endSize=8;entryX=0.461;entryY=0.111;entryDx=0;entryDy=0;entryPerimeter=0;" edge="1" parent="1">
          <mxGeometry width="50" height="50" relative="1" as="geometry">
            <mxPoint x="2253.0999999999995" y="710.3299999999999" as="sourcePoint" />
            <mxPoint x="2253.0999999999995" y="753.9899999999998" as="targetPoint" />
          </mxGeometry>
        </mxCell>
        <mxCell id="YYFYy1Fa-YksLg5kjB6h-118" value="" style="endArrow=classic;html=1;rounded=0;exitX=0.5;exitY=0.937;exitDx=0;exitDy=0;exitPerimeter=0;endSize=8;" edge="1" parent="1">
          <mxGeometry width="50" height="50" relative="1" as="geometry">
            <mxPoint x="1798.52" y="831" as="sourcePoint" />
            <mxPoint x="1798.52" y="870" as="targetPoint" />
          </mxGeometry>
        </mxCell>
        <mxCell id="YYFYy1Fa-YksLg5kjB6h-119" value="" style="endArrow=classic;html=1;rounded=0;exitX=0.5;exitY=0.937;exitDx=0;exitDy=0;exitPerimeter=0;endSize=8;" edge="1" parent="1">
          <mxGeometry width="50" height="50" relative="1" as="geometry">
            <mxPoint x="2256.52" y="831" as="sourcePoint" />
            <mxPoint x="2256.52" y="870" as="targetPoint" />
          </mxGeometry>
        </mxCell>
        <mxCell id="YYFYy1Fa-YksLg5kjB6h-120" value="" style="endArrow=classic;html=1;rounded=0;entryX=0.05;entryY=0.556;entryDx=0;entryDy=0;entryPerimeter=0;endSize=8;exitX=0.9;exitY=0.512;exitDx=0;exitDy=0;exitPerimeter=0;" edge="1" parent="1" source="YYFYy1Fa-YksLg5kjB6h-152">
          <mxGeometry width="50" height="50" relative="1" as="geometry">
            <mxPoint x="1944" y="794.0800000000002" as="sourcePoint" />
            <mxPoint x="2218" y="794.04" as="targetPoint" />
          </mxGeometry>
        </mxCell>
        <mxCell id="YYFYy1Fa-YksLg5kjB6h-121" value="" style="group;fontSize=18;fontFamily=Helvetica;" vertex="1" connectable="0" parent="1">
          <mxGeometry x="1640" y="864" width="95" height="90" as="geometry" />
        </mxCell>
        <mxCell id="YYFYy1Fa-YksLg5kjB6h-122" value="" style="endArrow=classic;html=1;rounded=0;" edge="1" parent="YYFYy1Fa-YksLg5kjB6h-121">
          <mxGeometry width="50" height="50" relative="1" as="geometry">
            <mxPoint x="78" y="46.47" as="sourcePoint" />
            <mxPoint x="118" y="46.47" as="targetPoint" />
          </mxGeometry>
        </mxCell>
        <mxCell id="YYFYy1Fa-YksLg5kjB6h-123" value="" style="rounded=0;whiteSpace=wrap;html=1;fillColor=default;fontSize=18;fontFamily=Helvetica;" vertex="1" parent="YYFYy1Fa-YksLg5kjB6h-121">
          <mxGeometry x="5" y="5" width="80" height="80" as="geometry" />
        </mxCell>
        <mxCell id="YYFYy1Fa-YksLg5kjB6h-124" value="15&lt;br style=&quot;font-size: 18px;&quot;&gt;————&lt;br style=&quot;font-size: 18px;&quot;&gt;30" style="text;html=1;align=center;verticalAlign=middle;resizable=0;points=[];autosize=1;strokeColor=none;fillColor=none;fontSize=18;strokeWidth=7;opacity=0;fontFamily=Helvetica;" vertex="1" parent="YYFYy1Fa-YksLg5kjB6h-121">
          <mxGeometry x="-5" y="5" width="100" height="80" as="geometry" />
        </mxCell>
        <mxCell id="YYFYy1Fa-YksLg5kjB6h-125" value="" style="group;fontSize=18;fontFamily=Helvetica;" vertex="1" connectable="0" parent="1">
          <mxGeometry x="1753" y="864" width="95" height="90" as="geometry" />
        </mxCell>
        <mxCell id="YYFYy1Fa-YksLg5kjB6h-126" value="" style="rounded=0;whiteSpace=wrap;html=1;fillColor=default;fontSize=18;fontFamily=Helvetica;" vertex="1" parent="YYFYy1Fa-YksLg5kjB6h-125">
          <mxGeometry x="5" y="5" width="80" height="80" as="geometry" />
        </mxCell>
        <mxCell id="YYFYy1Fa-YksLg5kjB6h-127" value="6&lt;br style=&quot;font-size: 18px;&quot;&gt;————&lt;br style=&quot;font-size: 18px;&quot;&gt;40" style="text;html=1;align=center;verticalAlign=middle;resizable=0;points=[];autosize=1;strokeColor=none;fillColor=none;fontSize=18;strokeWidth=7;opacity=0;fontFamily=Helvetica;" vertex="1" parent="YYFYy1Fa-YksLg5kjB6h-125">
          <mxGeometry x="-5" y="5" width="100" height="80" as="geometry" />
        </mxCell>
        <mxCell id="YYFYy1Fa-YksLg5kjB6h-128" value="" style="group;fontSize=18;fontFamily=Helvetica;" vertex="1" connectable="0" parent="1">
          <mxGeometry x="2104" y="864" width="95" height="90" as="geometry" />
        </mxCell>
        <mxCell id="YYFYy1Fa-YksLg5kjB6h-129" value="" style="endArrow=classic;html=1;rounded=0;" edge="1" parent="YYFYy1Fa-YksLg5kjB6h-128">
          <mxGeometry width="50" height="50" relative="1" as="geometry">
            <mxPoint x="73" y="46" as="sourcePoint" />
            <mxPoint x="113" y="46" as="targetPoint" />
          </mxGeometry>
        </mxCell>
        <mxCell id="YYFYy1Fa-YksLg5kjB6h-130" value="" style="rounded=0;whiteSpace=wrap;html=1;fillColor=default;fontSize=18;fontFamily=Helvetica;" vertex="1" parent="YYFYy1Fa-YksLg5kjB6h-128">
          <mxGeometry x="5" y="5" width="80" height="80" as="geometry" />
        </mxCell>
        <mxCell id="YYFYy1Fa-YksLg5kjB6h-131" value="11&lt;br style=&quot;font-size: 18px;&quot;&gt;————&lt;br style=&quot;font-size: 18px;&quot;&gt;50" style="text;html=1;align=center;verticalAlign=middle;resizable=0;points=[];autosize=1;strokeColor=none;fillColor=none;fontSize=18;strokeWidth=7;opacity=0;fontFamily=Helvetica;" vertex="1" parent="YYFYy1Fa-YksLg5kjB6h-128">
          <mxGeometry x="-5" y="5" width="100" height="80" as="geometry" />
        </mxCell>
        <mxCell id="YYFYy1Fa-YksLg5kjB6h-132" value="" style="group;fontSize=18;fontFamily=Helvetica;" vertex="1" connectable="0" parent="1">
          <mxGeometry x="2212" y="864" width="95" height="90" as="geometry" />
        </mxCell>
        <mxCell id="YYFYy1Fa-YksLg5kjB6h-133" value="" style="rounded=0;whiteSpace=wrap;html=1;fillColor=default;fontSize=18;fontFamily=Helvetica;" vertex="1" parent="YYFYy1Fa-YksLg5kjB6h-132">
          <mxGeometry x="5" y="5" width="80" height="80" as="geometry" />
        </mxCell>
        <mxCell id="YYFYy1Fa-YksLg5kjB6h-134" value="12&lt;br style=&quot;font-size: 18px;&quot;&gt;————&lt;br style=&quot;font-size: 18px;&quot;&gt;60" style="text;html=1;align=center;verticalAlign=middle;resizable=0;points=[];autosize=1;strokeColor=none;fillColor=none;fontSize=18;strokeWidth=7;opacity=0;fontFamily=Helvetica;" vertex="1" parent="YYFYy1Fa-YksLg5kjB6h-132">
          <mxGeometry x="-5" y="5" width="100" height="80" as="geometry" />
        </mxCell>
        <mxCell id="YYFYy1Fa-YksLg5kjB6h-135" value="" style="group;fontSize=18;fontFamily=Helvetica;" vertex="1" connectable="0" parent="1">
          <mxGeometry x="1753" y="748" width="95" height="90" as="geometry" />
        </mxCell>
        <mxCell id="YYFYy1Fa-YksLg5kjB6h-136" value="" style="rounded=0;whiteSpace=wrap;html=1;fillColor=default;fontSize=18;fontFamily=Helvetica;" vertex="1" parent="YYFYy1Fa-YksLg5kjB6h-135">
          <mxGeometry x="5" y="5" width="80" height="80" as="geometry" />
        </mxCell>
        <mxCell id="YYFYy1Fa-YksLg5kjB6h-137" value="&lt;div&gt;&lt;span style=&quot;text-align: start;&quot;&gt;&lt;font style=&quot;background-color: rgb(251, 251, 251);&quot;&gt;2&lt;/font&gt;&lt;font style=&quot;color: rgb(32, 33, 34); text-wrap: wrap; background-color: rgb(255, 255, 255); font-size: 23px;&quot;&gt;丨&lt;/font&gt;&lt;font style=&quot;color: rgb(32, 33, 34); text-wrap: wrap; background-color: rgb(255, 255, 255); font-size: 18px;&quot;&gt;21&lt;/font&gt;&lt;/span&gt;&lt;/div&gt;————&lt;br&gt;&lt;span style=&quot;text-wrap: wrap; text-align: start; background-color: rgb(255, 255, 255);&quot;&gt;&lt;font color=&quot;#474747&quot;&gt;6&lt;/font&gt;&lt;/span&gt;&lt;span style=&quot;text-wrap: wrap; color: rgb(32, 33, 34); text-align: start; background-color: rgb(255, 255, 255);&quot;&gt;&lt;font style=&quot;font-size: 23px;&quot;&gt;丨&lt;/font&gt;&lt;font style=&quot;font-size: 18px;&quot;&gt;15&lt;/font&gt;&lt;/span&gt;" style="text;html=1;align=center;verticalAlign=middle;resizable=0;points=[];autosize=1;strokeColor=none;fillColor=none;fontSize=18;strokeWidth=7;opacity=0;fontFamily=Helvetica;" vertex="1" parent="YYFYy1Fa-YksLg5kjB6h-135">
          <mxGeometry x="-5" width="100" height="90" as="geometry" />
        </mxCell>
        <mxCell id="YYFYy1Fa-YksLg5kjB6h-138" value="" style="group;fontSize=18;fontFamily=Helvetica;" vertex="1" connectable="0" parent="1">
          <mxGeometry x="2212" y="748" width="95" height="90" as="geometry" />
        </mxCell>
        <mxCell id="YYFYy1Fa-YksLg5kjB6h-139" value="" style="rounded=0;whiteSpace=wrap;html=1;fillColor=default;fontSize=18;fontFamily=Helvetica;" vertex="1" parent="YYFYy1Fa-YksLg5kjB6h-138">
          <mxGeometry x="5" y="5" width="80" height="80" as="geometry" />
        </mxCell>
        <mxCell id="YYFYy1Fa-YksLg5kjB6h-140" value="&lt;div&gt;&lt;span style=&quot;text-align: start; background-color: rgb(251, 251, 251);&quot;&gt;2&lt;/span&gt;&lt;span style=&quot;text-wrap: wrap; text-align: start; background-color: rgb(255, 255, 255);&quot;&gt;&lt;font style=&quot;font-size: 23px;&quot;&gt;丨&lt;/font&gt;&lt;font style=&quot;font-size: 18px;&quot;&gt;23&lt;/font&gt;&lt;/span&gt;&lt;/div&gt;————&lt;br&gt;&lt;span style=&quot;text-wrap: wrap; text-align: start; background-color: rgb(255, 255, 255);&quot;&gt;11&lt;/span&gt;&lt;span style=&quot;text-wrap: wrap; text-align: start; background-color: rgb(255, 255, 255);&quot;&gt;&lt;font style=&quot;font-size: 23px;&quot;&gt;丨&lt;/font&gt;&lt;font style=&quot;font-size: 18px;&quot;&gt;12&lt;/font&gt;&lt;/span&gt;" style="text;html=1;align=center;verticalAlign=middle;resizable=0;points=[];autosize=1;strokeColor=none;fillColor=none;fontSize=18;strokeWidth=7;opacity=0;fontFamily=Helvetica;" vertex="1" parent="YYFYy1Fa-YksLg5kjB6h-138">
          <mxGeometry x="-5" width="100" height="90" as="geometry" />
        </mxCell>
        <mxCell id="YYFYy1Fa-YksLg5kjB6h-141" value="" style="group;fontSize=18;fontFamily=Helvetica;" vertex="1" connectable="0" parent="1">
          <mxGeometry x="2212" y="630" width="95" height="90" as="geometry" />
        </mxCell>
        <mxCell id="YYFYy1Fa-YksLg5kjB6h-142" value="" style="rounded=0;whiteSpace=wrap;html=1;fillColor=default;fontSize=18;fontFamily=Helvetica;" vertex="1" parent="YYFYy1Fa-YksLg5kjB6h-141">
          <mxGeometry x="5" y="5" width="80" height="80" as="geometry" />
        </mxCell>
        <mxCell id="YYFYy1Fa-YksLg5kjB6h-143" value="&lt;div&gt;&lt;span style=&quot;text-align: start;&quot;&gt;&lt;font style=&quot;background-color: rgb(251, 251, 251);&quot;&gt;6&lt;/font&gt;&lt;font style=&quot;text-wrap: wrap; background-color: rgb(255, 255, 255); font-size: 23px;&quot;&gt;丨&lt;/font&gt;&lt;font style=&quot;text-wrap: wrap; background-color: rgb(255, 255, 255); font-size: 18px;&quot;&gt;70&lt;/font&gt;&lt;/span&gt;&lt;/div&gt;————&lt;br&gt;&lt;span style=&quot;text-wrap: wrap; text-align: start; background-color: rgb(255, 255, 255);&quot;&gt;6&lt;/span&gt;&lt;span style=&quot;text-wrap: wrap; text-align: start; background-color: rgb(255, 255, 255);&quot;&gt;&lt;font style=&quot;font-size: 23px;&quot;&gt;丨&lt;/font&gt;&lt;font style=&quot;font-size: 18px;&quot;&gt;18&lt;/font&gt;&lt;/span&gt;" style="text;html=1;align=center;verticalAlign=middle;resizable=0;points=[];autosize=1;strokeColor=none;fillColor=none;fontSize=18;strokeWidth=7;opacity=0;fontFamily=Helvetica;" vertex="1" parent="YYFYy1Fa-YksLg5kjB6h-141">
          <mxGeometry x="-5" width="100" height="90" as="geometry" />
        </mxCell>
        <mxCell id="YYFYy1Fa-YksLg5kjB6h-145" value="" style="endArrow=classic;html=1;rounded=0;" edge="1" parent="1">
          <mxGeometry width="50" height="50" relative="1" as="geometry">
            <mxPoint x="1838" y="909.47" as="sourcePoint" />
            <mxPoint x="1878" y="909.47" as="targetPoint" />
          </mxGeometry>
        </mxCell>
        <mxCell id="YYFYy1Fa-YksLg5kjB6h-146" value="" style="group;fontSize=18;fontFamily=Helvetica;" vertex="1" connectable="0" parent="1">
          <mxGeometry x="1989" y="864" width="95" height="90" as="geometry" />
        </mxCell>
        <mxCell id="YYFYy1Fa-YksLg5kjB6h-147" value="" style="endArrow=classic;html=1;rounded=0;" edge="1" parent="YYFYy1Fa-YksLg5kjB6h-146">
          <mxGeometry width="50" height="50" relative="1" as="geometry">
            <mxPoint x="79" y="46" as="sourcePoint" />
            <mxPoint x="119" y="46" as="targetPoint" />
          </mxGeometry>
        </mxCell>
        <mxCell id="YYFYy1Fa-YksLg5kjB6h-148" value="" style="rounded=0;whiteSpace=wrap;html=1;fillColor=default;fontSize=18;fontFamily=Helvetica;" vertex="1" parent="YYFYy1Fa-YksLg5kjB6h-146">
          <mxGeometry x="5" y="5" width="80" height="80" as="geometry" />
        </mxCell>
        <mxCell id="YYFYy1Fa-YksLg5kjB6h-149" value="18&lt;br style=&quot;font-size: 18px;&quot;&gt;————&lt;br style=&quot;font-size: 18px;&quot;&gt;48" style="text;html=1;align=center;verticalAlign=middle;resizable=0;points=[];autosize=1;strokeColor=none;fillColor=none;fontSize=18;strokeWidth=7;opacity=0;fontFamily=Helvetica;" vertex="1" parent="YYFYy1Fa-YksLg5kjB6h-146">
          <mxGeometry x="-5" y="5" width="100" height="80" as="geometry" />
        </mxCell>
        <mxCell id="YYFYy1Fa-YksLg5kjB6h-150" value="" style="group;fontSize=18;fontFamily=Helvetica;" vertex="1" connectable="0" parent="1">
          <mxGeometry x="1989" y="748" width="95" height="90" as="geometry" />
        </mxCell>
        <mxCell id="YYFYy1Fa-YksLg5kjB6h-151" value="" style="rounded=0;whiteSpace=wrap;html=1;fillColor=default;fontSize=18;fontFamily=Helvetica;" vertex="1" parent="YYFYy1Fa-YksLg5kjB6h-150">
          <mxGeometry x="5" y="5" width="80" height="80" as="geometry" />
        </mxCell>
        <mxCell id="YYFYy1Fa-YksLg5kjB6h-152" value="&lt;div&gt;&lt;span style=&quot;text-align: start;&quot;&gt;&lt;font style=&quot;background-color: rgb(251, 251, 251);&quot;&gt;2&lt;/font&gt;&lt;font style=&quot;text-wrap: wrap; background-color: rgb(255, 255, 255); font-size: 23px;&quot;&gt;丨&lt;/font&gt;&lt;font style=&quot;text-wrap: wrap; background-color: rgb(255, 255, 255); font-size: 18px;&quot;&gt;26&lt;/font&gt;&lt;/span&gt;&lt;/div&gt;————&lt;br&gt;&lt;span style=&quot;text-wrap: wrap; text-align: start; background-color: rgb(255, 255, 255);&quot;&gt;8&lt;/span&gt;&lt;span style=&quot;text-wrap: wrap; text-align: start; background-color: rgb(255, 255, 255);&quot;&gt;&lt;font style=&quot;font-size: 23px;&quot;&gt;丨&lt;/font&gt;&lt;font style=&quot;font-size: 18px;&quot;&gt;1&lt;/font&gt;&lt;font style=&quot;font-size: 18px;&quot;&gt;8&lt;/font&gt;&lt;/span&gt;" style="text;html=1;align=center;verticalAlign=middle;resizable=0;points=[];autosize=1;strokeColor=none;fillColor=none;fontSize=18;strokeWidth=7;opacity=0;fontFamily=Helvetica;" vertex="1" parent="YYFYy1Fa-YksLg5kjB6h-150">
          <mxGeometry x="-5" width="100" height="90" as="geometry" />
        </mxCell>
        <mxCell id="YYFYy1Fa-YksLg5kjB6h-153" value="" style="group;fontSize=18;fontFamily=Helvetica;" vertex="1" connectable="0" parent="1">
          <mxGeometry x="1873" y="864" width="95" height="90" as="geometry" />
        </mxCell>
        <mxCell id="YYFYy1Fa-YksLg5kjB6h-154" value="" style="endArrow=classic;html=1;rounded=0;" edge="1" parent="YYFYy1Fa-YksLg5kjB6h-153">
          <mxGeometry width="50" height="50" relative="1" as="geometry">
            <mxPoint x="79" y="46" as="sourcePoint" />
            <mxPoint x="119" y="46" as="targetPoint" />
          </mxGeometry>
        </mxCell>
        <mxCell id="YYFYy1Fa-YksLg5kjB6h-155" value="" style="rounded=0;whiteSpace=wrap;html=1;fillColor=default;fontSize=18;fontFamily=Helvetica;" vertex="1" parent="YYFYy1Fa-YksLg5kjB6h-153">
          <mxGeometry x="5" y="5" width="80" height="80" as="geometry" />
        </mxCell>
        <mxCell id="YYFYy1Fa-YksLg5kjB6h-156" value="8&lt;br style=&quot;font-size: 18px;&quot;&gt;————&lt;br style=&quot;font-size: 18px;&quot;&gt;45" style="text;html=1;align=center;verticalAlign=middle;resizable=0;points=[];autosize=1;strokeColor=none;fillColor=none;fontSize=18;strokeWidth=7;opacity=0;fontFamily=Helvetica;" vertex="1" parent="YYFYy1Fa-YksLg5kjB6h-153">
          <mxGeometry x="-5" y="5" width="100" height="80" as="geometry" />
        </mxCell>
        <mxCell id="YYFYy1Fa-YksLg5kjB6h-163" value="" style="endArrow=classic;html=1;rounded=0;entryX=0.05;entryY=0.556;entryDx=0;entryDy=0;entryPerimeter=0;endSize=8;" edge="1" parent="1">
          <mxGeometry width="50" height="50" relative="1" as="geometry">
            <mxPoint x="1645" y="677.23" as="sourcePoint" />
            <mxPoint x="2217" y="677.27" as="targetPoint" />
          </mxGeometry>
        </mxCell>
        <mxCell id="YYFYy1Fa-YksLg5kjB6h-164" value="" style="endArrow=classic;html=1;rounded=0;entryX=0.05;entryY=0.556;entryDx=0;entryDy=0;entryPerimeter=0;endSize=8;" edge="1" parent="1">
          <mxGeometry width="50" height="50" relative="1" as="geometry">
            <mxPoint x="1638" y="794" as="sourcePoint" />
            <mxPoint x="1757" y="794.27" as="targetPoint" />
          </mxGeometry>
        </mxCell>
        <mxCell id="YYFYy1Fa-YksLg5kjB6h-245" value="" style="endArrow=classic;html=1;rounded=0;exitX=0.5;exitY=0.937;exitDx=0;exitDy=0;exitPerimeter=0;endSize=8;" edge="1" parent="1">
          <mxGeometry width="50" height="50" relative="1" as="geometry">
            <mxPoint x="2795.0699999999997" y="830" as="sourcePoint" />
            <mxPoint x="2795.0699999999997" y="869" as="targetPoint" />
          </mxGeometry>
        </mxCell>
        <mxCell id="YYFYy1Fa-YksLg5kjB6h-246" value="" style="endArrow=classic;html=1;rounded=0;exitX=0.461;exitY=0.937;exitDx=0;exitDy=0;exitPerimeter=0;endSize=8;entryX=0.461;entryY=0.111;entryDx=0;entryDy=0;entryPerimeter=0;" edge="1" parent="1">
          <mxGeometry width="50" height="50" relative="1" as="geometry">
            <mxPoint x="3014.0999999999995" y="709.3299999999999" as="sourcePoint" />
            <mxPoint x="3014.0999999999995" y="752.9899999999998" as="targetPoint" />
          </mxGeometry>
        </mxCell>
        <mxCell id="YYFYy1Fa-YksLg5kjB6h-247" value="" style="endArrow=classic;html=1;rounded=0;exitX=0.5;exitY=0.937;exitDx=0;exitDy=0;exitPerimeter=0;endSize=8;" edge="1" parent="1">
          <mxGeometry width="50" height="50" relative="1" as="geometry">
            <mxPoint x="2559.52" y="830" as="sourcePoint" />
            <mxPoint x="2559.52" y="869" as="targetPoint" />
          </mxGeometry>
        </mxCell>
        <mxCell id="YYFYy1Fa-YksLg5kjB6h-248" value="" style="endArrow=classic;html=1;rounded=0;exitX=0.5;exitY=0.937;exitDx=0;exitDy=0;exitPerimeter=0;endSize=8;" edge="1" parent="1">
          <mxGeometry width="50" height="50" relative="1" as="geometry">
            <mxPoint x="3017.52" y="830" as="sourcePoint" />
            <mxPoint x="3017.52" y="869" as="targetPoint" />
          </mxGeometry>
        </mxCell>
        <mxCell id="YYFYy1Fa-YksLg5kjB6h-249" value="" style="endArrow=classic;html=1;rounded=0;entryX=0.05;entryY=0.556;entryDx=0;entryDy=0;entryPerimeter=0;endSize=8;exitX=0.9;exitY=0.512;exitDx=0;exitDy=0;exitPerimeter=0;" edge="1" parent="1" source="YYFYy1Fa-YksLg5kjB6h-281">
          <mxGeometry width="50" height="50" relative="1" as="geometry">
            <mxPoint x="2705" y="793.0800000000002" as="sourcePoint" />
            <mxPoint x="2979" y="793.04" as="targetPoint" />
          </mxGeometry>
        </mxCell>
        <mxCell id="YYFYy1Fa-YksLg5kjB6h-250" value="" style="group;fontSize=18;fontFamily=Helvetica;" vertex="1" connectable="0" parent="1">
          <mxGeometry x="2401" y="863" width="95" height="90" as="geometry" />
        </mxCell>
        <mxCell id="YYFYy1Fa-YksLg5kjB6h-251" value="" style="endArrow=classic;html=1;rounded=0;" edge="1" parent="YYFYy1Fa-YksLg5kjB6h-250">
          <mxGeometry width="50" height="50" relative="1" as="geometry">
            <mxPoint x="78" y="46.47" as="sourcePoint" />
            <mxPoint x="118" y="46.47" as="targetPoint" />
          </mxGeometry>
        </mxCell>
        <mxCell id="YYFYy1Fa-YksLg5kjB6h-252" value="" style="rounded=0;whiteSpace=wrap;html=1;fillColor=default;fontSize=18;fontFamily=Helvetica;" vertex="1" parent="YYFYy1Fa-YksLg5kjB6h-250">
          <mxGeometry x="5" y="5" width="80" height="80" as="geometry" />
        </mxCell>
        <mxCell id="YYFYy1Fa-YksLg5kjB6h-253" value="15&lt;br style=&quot;font-size: 18px;&quot;&gt;————&lt;br style=&quot;font-size: 18px;&quot;&gt;30" style="text;html=1;align=center;verticalAlign=middle;resizable=0;points=[];autosize=1;strokeColor=none;fillColor=none;fontSize=18;strokeWidth=7;opacity=0;fontFamily=Helvetica;" vertex="1" parent="YYFYy1Fa-YksLg5kjB6h-250">
          <mxGeometry x="-5" y="5" width="100" height="80" as="geometry" />
        </mxCell>
        <mxCell id="YYFYy1Fa-YksLg5kjB6h-254" value="" style="group;fontSize=18;fontFamily=Helvetica;" vertex="1" connectable="0" parent="1">
          <mxGeometry x="2514" y="863" width="95" height="90" as="geometry" />
        </mxCell>
        <mxCell id="YYFYy1Fa-YksLg5kjB6h-255" value="" style="rounded=0;whiteSpace=wrap;html=1;fillColor=default;fontSize=18;fontFamily=Helvetica;" vertex="1" parent="YYFYy1Fa-YksLg5kjB6h-254">
          <mxGeometry x="5" y="5" width="80" height="80" as="geometry" />
        </mxCell>
        <mxCell id="YYFYy1Fa-YksLg5kjB6h-256" value="6&lt;br style=&quot;font-size: 18px;&quot;&gt;————&lt;br style=&quot;font-size: 18px;&quot;&gt;40" style="text;html=1;align=center;verticalAlign=middle;resizable=0;points=[];autosize=1;strokeColor=none;fillColor=none;fontSize=18;strokeWidth=7;opacity=0;fontFamily=Helvetica;" vertex="1" parent="YYFYy1Fa-YksLg5kjB6h-254">
          <mxGeometry x="-5" y="5" width="100" height="80" as="geometry" />
        </mxCell>
        <mxCell id="YYFYy1Fa-YksLg5kjB6h-257" value="" style="group;fontSize=18;fontFamily=Helvetica;" vertex="1" connectable="0" parent="1">
          <mxGeometry x="2865" y="863" width="95" height="90" as="geometry" />
        </mxCell>
        <mxCell id="YYFYy1Fa-YksLg5kjB6h-258" value="" style="endArrow=classic;html=1;rounded=0;" edge="1" parent="YYFYy1Fa-YksLg5kjB6h-257">
          <mxGeometry width="50" height="50" relative="1" as="geometry">
            <mxPoint x="73" y="46" as="sourcePoint" />
            <mxPoint x="113" y="46" as="targetPoint" />
          </mxGeometry>
        </mxCell>
        <mxCell id="YYFYy1Fa-YksLg5kjB6h-259" value="" style="rounded=0;whiteSpace=wrap;html=1;fillColor=default;fontSize=18;fontFamily=Helvetica;" vertex="1" parent="YYFYy1Fa-YksLg5kjB6h-257">
          <mxGeometry x="5" y="5" width="80" height="80" as="geometry" />
        </mxCell>
        <mxCell id="YYFYy1Fa-YksLg5kjB6h-260" value="11&lt;br style=&quot;font-size: 18px;&quot;&gt;————&lt;br style=&quot;font-size: 18px;&quot;&gt;50" style="text;html=1;align=center;verticalAlign=middle;resizable=0;points=[];autosize=1;strokeColor=none;fillColor=none;fontSize=18;strokeWidth=7;opacity=0;fontFamily=Helvetica;" vertex="1" parent="YYFYy1Fa-YksLg5kjB6h-257">
          <mxGeometry x="-5" y="5" width="100" height="80" as="geometry" />
        </mxCell>
        <mxCell id="YYFYy1Fa-YksLg5kjB6h-261" value="" style="group;fontSize=18;fontFamily=Helvetica;" vertex="1" connectable="0" parent="1">
          <mxGeometry x="2973" y="863" width="95" height="90" as="geometry" />
        </mxCell>
        <mxCell id="YYFYy1Fa-YksLg5kjB6h-262" value="" style="rounded=0;whiteSpace=wrap;html=1;fillColor=default;fontSize=18;fontFamily=Helvetica;" vertex="1" parent="YYFYy1Fa-YksLg5kjB6h-261">
          <mxGeometry x="5" y="5" width="80" height="80" as="geometry" />
        </mxCell>
        <mxCell id="YYFYy1Fa-YksLg5kjB6h-263" value="12&lt;br style=&quot;font-size: 18px;&quot;&gt;————&lt;br style=&quot;font-size: 18px;&quot;&gt;60" style="text;html=1;align=center;verticalAlign=middle;resizable=0;points=[];autosize=1;strokeColor=none;fillColor=none;fontSize=18;strokeWidth=7;opacity=0;fontFamily=Helvetica;" vertex="1" parent="YYFYy1Fa-YksLg5kjB6h-261">
          <mxGeometry x="-5" y="5" width="100" height="80" as="geometry" />
        </mxCell>
        <mxCell id="YYFYy1Fa-YksLg5kjB6h-264" value="" style="group;fontSize=18;fontFamily=Helvetica;" vertex="1" connectable="0" parent="1">
          <mxGeometry x="2514" y="747" width="95" height="90" as="geometry" />
        </mxCell>
        <mxCell id="YYFYy1Fa-YksLg5kjB6h-265" value="" style="rounded=0;whiteSpace=wrap;html=1;fillColor=default;fontSize=18;fontFamily=Helvetica;" vertex="1" parent="YYFYy1Fa-YksLg5kjB6h-264">
          <mxGeometry x="5" y="5" width="80" height="80" as="geometry" />
        </mxCell>
        <mxCell id="YYFYy1Fa-YksLg5kjB6h-266" value="&lt;div&gt;&lt;span style=&quot;text-align: start;&quot;&gt;&lt;font style=&quot;background-color: rgb(251, 251, 251);&quot;&gt;2&lt;/font&gt;&lt;font style=&quot;color: rgb(32, 33, 34); text-wrap: wrap; background-color: rgb(255, 255, 255); font-size: 23px;&quot;&gt;丨&lt;/font&gt;&lt;font style=&quot;color: rgb(32, 33, 34); text-wrap: wrap; background-color: rgb(255, 255, 255); font-size: 18px;&quot;&gt;21&lt;/font&gt;&lt;/span&gt;&lt;/div&gt;————&lt;br&gt;&lt;span style=&quot;text-wrap: wrap; text-align: start; background-color: rgb(255, 255, 255);&quot;&gt;&lt;font color=&quot;#474747&quot;&gt;6&lt;/font&gt;&lt;/span&gt;&lt;span style=&quot;text-wrap: wrap; color: rgb(32, 33, 34); text-align: start; background-color: rgb(255, 255, 255);&quot;&gt;&lt;font style=&quot;font-size: 23px;&quot;&gt;丨&lt;/font&gt;&lt;font style=&quot;font-size: 18px;&quot;&gt;15&lt;/font&gt;&lt;/span&gt;" style="text;html=1;align=center;verticalAlign=middle;resizable=0;points=[];autosize=1;strokeColor=none;fillColor=none;fontSize=18;strokeWidth=7;opacity=0;fontFamily=Helvetica;" vertex="1" parent="YYFYy1Fa-YksLg5kjB6h-264">
          <mxGeometry x="-5" width="100" height="90" as="geometry" />
        </mxCell>
        <mxCell id="YYFYy1Fa-YksLg5kjB6h-267" value="" style="group;fontSize=18;fontFamily=Helvetica;" vertex="1" connectable="0" parent="1">
          <mxGeometry x="2973" y="747" width="95" height="90" as="geometry" />
        </mxCell>
        <mxCell id="YYFYy1Fa-YksLg5kjB6h-268" value="" style="rounded=0;whiteSpace=wrap;html=1;fillColor=default;fontSize=18;fontFamily=Helvetica;" vertex="1" parent="YYFYy1Fa-YksLg5kjB6h-267">
          <mxGeometry x="5" y="5" width="80" height="80" as="geometry" />
        </mxCell>
        <mxCell id="YYFYy1Fa-YksLg5kjB6h-269" value="&lt;div&gt;&lt;b&gt;&lt;font color=&quot;#ff3333&quot;&gt;&lt;span style=&quot;text-align: start; background-color: rgb(251, 251, 251);&quot;&gt;4&lt;/span&gt;&lt;span style=&quot;text-wrap: wrap; text-align: start; background-color: rgb(255, 255, 255);&quot;&gt;&lt;font style=&quot;font-size: 23px;&quot;&gt;丨&lt;/font&gt;&lt;font style=&quot;font-size: 18px;&quot;&gt;49&lt;/font&gt;&lt;/span&gt;&lt;/font&gt;&lt;/b&gt;&lt;/div&gt;&lt;b&gt;&lt;font color=&quot;#ff3333&quot;&gt;————&lt;br&gt;&lt;span style=&quot;text-wrap: wrap; text-align: start; background-color: rgb(255, 255, 255);&quot;&gt;&lt;font style=&quot;&quot;&gt;8&lt;/font&gt;&lt;font style=&quot;font-size: 23px;&quot;&gt;丨&lt;/font&gt;&lt;font style=&quot;font-size: 18px;&quot;&gt;18&lt;/font&gt;&lt;/span&gt;&lt;/font&gt;&lt;/b&gt;" style="text;html=1;align=center;verticalAlign=middle;resizable=0;points=[];autosize=1;strokeColor=none;fillColor=none;fontSize=18;strokeWidth=7;opacity=0;fontFamily=Helvetica;" vertex="1" parent="YYFYy1Fa-YksLg5kjB6h-267">
          <mxGeometry x="-5" width="100" height="90" as="geometry" />
        </mxCell>
        <mxCell id="YYFYy1Fa-YksLg5kjB6h-270" value="" style="group;fontSize=18;fontFamily=Helvetica;" vertex="1" connectable="0" parent="1">
          <mxGeometry x="2973" y="629" width="95" height="90" as="geometry" />
        </mxCell>
        <mxCell id="YYFYy1Fa-YksLg5kjB6h-271" value="" style="rounded=0;whiteSpace=wrap;html=1;fillColor=default;fontSize=18;fontFamily=Helvetica;" vertex="1" parent="YYFYy1Fa-YksLg5kjB6h-270">
          <mxGeometry x="5" y="5" width="80" height="80" as="geometry" />
        </mxCell>
        <mxCell id="YYFYy1Fa-YksLg5kjB6h-272" value="&lt;div&gt;&lt;span style=&quot;text-align: start;&quot;&gt;&lt;font style=&quot;background-color: rgb(251, 251, 251);&quot;&gt;6&lt;/font&gt;&lt;font style=&quot;text-wrap: wrap; background-color: rgb(255, 255, 255); font-size: 23px;&quot;&gt;丨&lt;/font&gt;&lt;font style=&quot;text-wrap: wrap; background-color: rgb(255, 255, 255); font-size: 18px;&quot;&gt;70&lt;/font&gt;&lt;/span&gt;&lt;/div&gt;————&lt;br&gt;&lt;span style=&quot;text-wrap: wrap; text-align: start; background-color: rgb(255, 255, 255);&quot;&gt;6&lt;/span&gt;&lt;span style=&quot;text-wrap: wrap; text-align: start; background-color: rgb(255, 255, 255);&quot;&gt;&lt;font style=&quot;font-size: 23px;&quot;&gt;丨&lt;/font&gt;&lt;font style=&quot;font-size: 18px;&quot;&gt;18&lt;/font&gt;&lt;/span&gt;" style="text;html=1;align=center;verticalAlign=middle;resizable=0;points=[];autosize=1;strokeColor=none;fillColor=none;fontSize=18;strokeWidth=7;opacity=0;fontFamily=Helvetica;" vertex="1" parent="YYFYy1Fa-YksLg5kjB6h-270">
          <mxGeometry x="-5" width="100" height="90" as="geometry" />
        </mxCell>
        <mxCell id="YYFYy1Fa-YksLg5kjB6h-273" value="" style="shape=flexArrow;endArrow=classic;html=1;rounded=0;fontSize=16;" edge="1" parent="1">
          <mxGeometry width="50" height="50" relative="1" as="geometry">
            <mxPoint x="2311" y="824" as="sourcePoint" />
            <mxPoint x="2397" y="824" as="targetPoint" />
          </mxGeometry>
        </mxCell>
        <mxCell id="YYFYy1Fa-YksLg5kjB6h-274" value="" style="endArrow=classic;html=1;rounded=0;" edge="1" parent="1">
          <mxGeometry width="50" height="50" relative="1" as="geometry">
            <mxPoint x="2599" y="908.47" as="sourcePoint" />
            <mxPoint x="2639" y="908.47" as="targetPoint" />
          </mxGeometry>
        </mxCell>
        <mxCell id="YYFYy1Fa-YksLg5kjB6h-275" value="" style="group;fontSize=18;fontFamily=Helvetica;" vertex="1" connectable="0" parent="1">
          <mxGeometry x="2750" y="863" width="95" height="90" as="geometry" />
        </mxCell>
        <mxCell id="YYFYy1Fa-YksLg5kjB6h-276" value="" style="endArrow=classic;html=1;rounded=0;" edge="1" parent="YYFYy1Fa-YksLg5kjB6h-275">
          <mxGeometry width="50" height="50" relative="1" as="geometry">
            <mxPoint x="79" y="46" as="sourcePoint" />
            <mxPoint x="119" y="46" as="targetPoint" />
          </mxGeometry>
        </mxCell>
        <mxCell id="YYFYy1Fa-YksLg5kjB6h-277" value="" style="rounded=0;whiteSpace=wrap;html=1;fillColor=default;fontSize=18;fontFamily=Helvetica;" vertex="1" parent="YYFYy1Fa-YksLg5kjB6h-275">
          <mxGeometry x="5" y="5" width="80" height="80" as="geometry" />
        </mxCell>
        <mxCell id="YYFYy1Fa-YksLg5kjB6h-278" value="&lt;font color=&quot;#ff3333&quot;&gt;&lt;b&gt;18&lt;br style=&quot;font-size: 18px;&quot;&gt;————&lt;br style=&quot;font-size: 18px;&quot;&gt;48&lt;/b&gt;&lt;/font&gt;" style="text;html=1;align=center;verticalAlign=middle;resizable=0;points=[];autosize=1;strokeColor=none;fillColor=none;fontSize=18;strokeWidth=7;opacity=0;fontFamily=Helvetica;" vertex="1" parent="YYFYy1Fa-YksLg5kjB6h-275">
          <mxGeometry x="-5" y="5" width="100" height="80" as="geometry" />
        </mxCell>
        <mxCell id="YYFYy1Fa-YksLg5kjB6h-288" style="edgeStyle=orthogonalEdgeStyle;rounded=0;orthogonalLoop=1;jettySize=auto;html=1;exitX=1;exitY=0.5;exitDx=0;exitDy=0;fontSize=16;entryX=0.1;entryY=0.5;entryDx=0;entryDy=0;entryPerimeter=0;endSize=8;strokeColor=#FF3333;strokeWidth=2;" edge="1" parent="YYFYy1Fa-YksLg5kjB6h-275" target="YYFYy1Fa-YksLg5kjB6h-260">
          <mxGeometry relative="1" as="geometry">
            <Array as="points">
              <mxPoint x="-10" y="45" />
              <mxPoint x="-10" y="97" />
              <mxPoint x="100" y="97" />
              <mxPoint x="100" y="45" />
            </Array>
            <mxPoint x="-30" y="45.08999999999992" as="sourcePoint" />
            <mxPoint x="70" y="45.08999999999992" as="targetPoint" />
          </mxGeometry>
        </mxCell>
        <mxCell id="YYFYy1Fa-YksLg5kjB6h-279" value="" style="group;fontSize=18;fontFamily=Helvetica;" vertex="1" connectable="0" parent="1">
          <mxGeometry x="2750" y="747" width="95" height="90" as="geometry" />
        </mxCell>
        <mxCell id="YYFYy1Fa-YksLg5kjB6h-280" value="" style="rounded=0;whiteSpace=wrap;html=1;fillColor=default;fontSize=18;fontFamily=Helvetica;" vertex="1" parent="YYFYy1Fa-YksLg5kjB6h-279">
          <mxGeometry x="5" y="5" width="80" height="80" as="geometry" />
        </mxCell>
        <mxCell id="YYFYy1Fa-YksLg5kjB6h-281" value="&lt;div&gt;&lt;span style=&quot;text-align: start;&quot;&gt;&lt;font style=&quot;background-color: rgb(251, 251, 251);&quot;&gt;2&lt;/font&gt;&lt;font style=&quot;text-wrap: wrap; background-color: rgb(255, 255, 255); font-size: 23px;&quot;&gt;丨&lt;/font&gt;&lt;font style=&quot;text-wrap: wrap; background-color: rgb(255, 255, 255); font-size: 18px;&quot;&gt;26&lt;/font&gt;&lt;/span&gt;&lt;/div&gt;————&lt;br&gt;&lt;span style=&quot;text-wrap: wrap; text-align: start; background-color: rgb(255, 255, 255);&quot;&gt;8&lt;/span&gt;&lt;span style=&quot;text-wrap: wrap; text-align: start; background-color: rgb(255, 255, 255);&quot;&gt;&lt;font style=&quot;font-size: 23px;&quot;&gt;丨&lt;/font&gt;&lt;font style=&quot;font-size: 18px;&quot;&gt;1&lt;/font&gt;&lt;font style=&quot;font-size: 18px;&quot;&gt;8&lt;/font&gt;&lt;/span&gt;" style="text;html=1;align=center;verticalAlign=middle;resizable=0;points=[];autosize=1;strokeColor=none;fillColor=none;fontSize=18;strokeWidth=7;opacity=0;fontFamily=Helvetica;" vertex="1" parent="YYFYy1Fa-YksLg5kjB6h-279">
          <mxGeometry x="-5" width="100" height="90" as="geometry" />
        </mxCell>
        <mxCell id="YYFYy1Fa-YksLg5kjB6h-289" style="edgeStyle=orthogonalEdgeStyle;rounded=0;orthogonalLoop=1;jettySize=auto;html=1;exitX=1;exitY=0.5;exitDx=0;exitDy=0;fontSize=16;entryX=0.12;entryY=0.5;entryDx=0;entryDy=0;entryPerimeter=0;endSize=8;strokeColor=#FF3333;strokeWidth=2;" edge="1" parent="YYFYy1Fa-YksLg5kjB6h-279" target="YYFYy1Fa-YksLg5kjB6h-269">
          <mxGeometry relative="1" as="geometry">
            <mxPoint x="89" y="45.07999999999993" as="targetPoint" />
            <Array as="points">
              <mxPoint x="-70" y="45" />
              <mxPoint x="-70" y="-5" />
              <mxPoint x="160" y="-5" />
              <mxPoint x="160" y="45" />
            </Array>
            <mxPoint x="-151" y="45.07999999999993" as="sourcePoint" />
          </mxGeometry>
        </mxCell>
        <mxCell id="YYFYy1Fa-YksLg5kjB6h-282" value="" style="group;fontSize=18;fontFamily=Helvetica;" vertex="1" connectable="0" parent="1">
          <mxGeometry x="2634" y="863" width="95" height="90" as="geometry" />
        </mxCell>
        <mxCell id="YYFYy1Fa-YksLg5kjB6h-284" value="" style="rounded=0;whiteSpace=wrap;html=1;fillColor=default;fontSize=18;fontFamily=Helvetica;" vertex="1" parent="YYFYy1Fa-YksLg5kjB6h-282">
          <mxGeometry x="5" y="5" width="80" height="80" as="geometry" />
        </mxCell>
        <mxCell id="YYFYy1Fa-YksLg5kjB6h-285" value="8&lt;br style=&quot;font-size: 18px;&quot;&gt;————&lt;br style=&quot;font-size: 18px;&quot;&gt;45" style="text;html=1;align=center;verticalAlign=middle;resizable=0;points=[];autosize=1;strokeColor=none;fillColor=none;fontSize=18;strokeWidth=7;opacity=0;fontFamily=Helvetica;" vertex="1" parent="YYFYy1Fa-YksLg5kjB6h-282">
          <mxGeometry x="-5" y="5" width="100" height="80" as="geometry" />
        </mxCell>
        <mxCell id="YYFYy1Fa-YksLg5kjB6h-286" value="" style="endArrow=classic;html=1;rounded=0;entryX=0.05;entryY=0.556;entryDx=0;entryDy=0;entryPerimeter=0;endSize=8;" edge="1" parent="1">
          <mxGeometry width="50" height="50" relative="1" as="geometry">
            <mxPoint x="2406" y="676.23" as="sourcePoint" />
            <mxPoint x="2978" y="676.27" as="targetPoint" />
          </mxGeometry>
        </mxCell>
        <mxCell id="YYFYy1Fa-YksLg5kjB6h-287" value="" style="endArrow=classic;html=1;rounded=0;entryX=0.05;entryY=0.556;entryDx=0;entryDy=0;entryPerimeter=0;endSize=8;" edge="1" parent="1">
          <mxGeometry width="50" height="50" relative="1" as="geometry">
            <mxPoint x="2399" y="793" as="sourcePoint" />
            <mxPoint x="2518" y="793.27" as="targetPoint" />
          </mxGeometry>
        </mxCell>
        <mxCell id="YYFYy1Fa-YksLg5kjB6h-290" value="" style="endArrow=classic;html=1;rounded=0;exitX=0.5;exitY=0.937;exitDx=0;exitDy=0;exitPerimeter=0;endSize=8;" edge="1" parent="1">
          <mxGeometry width="50" height="50" relative="1" as="geometry">
            <mxPoint x="3546.0699999999997" y="831" as="sourcePoint" />
            <mxPoint x="3546.0699999999997" y="870" as="targetPoint" />
          </mxGeometry>
        </mxCell>
        <mxCell id="YYFYy1Fa-YksLg5kjB6h-291" value="" style="endArrow=classic;html=1;rounded=0;exitX=0.461;exitY=0.937;exitDx=0;exitDy=0;exitPerimeter=0;endSize=8;entryX=0.461;entryY=0.111;entryDx=0;entryDy=0;entryPerimeter=0;" edge="1" parent="1">
          <mxGeometry width="50" height="50" relative="1" as="geometry">
            <mxPoint x="3765.0999999999995" y="710.3299999999999" as="sourcePoint" />
            <mxPoint x="3765.0999999999995" y="753.9899999999998" as="targetPoint" />
          </mxGeometry>
        </mxCell>
        <mxCell id="YYFYy1Fa-YksLg5kjB6h-292" value="" style="endArrow=classic;html=1;rounded=0;exitX=0.5;exitY=0.937;exitDx=0;exitDy=0;exitPerimeter=0;endSize=8;" edge="1" parent="1">
          <mxGeometry width="50" height="50" relative="1" as="geometry">
            <mxPoint x="3310.52" y="831" as="sourcePoint" />
            <mxPoint x="3310.52" y="870" as="targetPoint" />
          </mxGeometry>
        </mxCell>
        <mxCell id="YYFYy1Fa-YksLg5kjB6h-293" value="" style="endArrow=classic;html=1;rounded=0;exitX=0.5;exitY=0.937;exitDx=0;exitDy=0;exitPerimeter=0;endSize=8;" edge="1" parent="1">
          <mxGeometry width="50" height="50" relative="1" as="geometry">
            <mxPoint x="3768.52" y="831" as="sourcePoint" />
            <mxPoint x="3768.52" y="870" as="targetPoint" />
          </mxGeometry>
        </mxCell>
        <mxCell id="YYFYy1Fa-YksLg5kjB6h-294" value="" style="endArrow=classic;html=1;rounded=0;entryX=0.05;entryY=0.556;entryDx=0;entryDy=0;entryPerimeter=0;endSize=8;exitX=0.9;exitY=0.512;exitDx=0;exitDy=0;exitPerimeter=0;" edge="1" parent="1" source="YYFYy1Fa-YksLg5kjB6h-327">
          <mxGeometry width="50" height="50" relative="1" as="geometry">
            <mxPoint x="3456" y="794.0800000000002" as="sourcePoint" />
            <mxPoint x="3730" y="794.04" as="targetPoint" />
          </mxGeometry>
        </mxCell>
        <mxCell id="YYFYy1Fa-YksLg5kjB6h-295" value="" style="group;fontSize=18;fontFamily=Helvetica;" vertex="1" connectable="0" parent="1">
          <mxGeometry x="3152" y="864" width="95" height="90" as="geometry" />
        </mxCell>
        <mxCell id="YYFYy1Fa-YksLg5kjB6h-296" value="" style="endArrow=classic;html=1;rounded=0;" edge="1" parent="YYFYy1Fa-YksLg5kjB6h-295">
          <mxGeometry width="50" height="50" relative="1" as="geometry">
            <mxPoint x="78" y="46.47" as="sourcePoint" />
            <mxPoint x="118" y="46.47" as="targetPoint" />
          </mxGeometry>
        </mxCell>
        <mxCell id="YYFYy1Fa-YksLg5kjB6h-297" value="" style="rounded=0;whiteSpace=wrap;html=1;fillColor=default;fontSize=18;fontFamily=Helvetica;" vertex="1" parent="YYFYy1Fa-YksLg5kjB6h-295">
          <mxGeometry x="5" y="5" width="80" height="80" as="geometry" />
        </mxCell>
        <mxCell id="YYFYy1Fa-YksLg5kjB6h-298" value="15&lt;br style=&quot;font-size: 18px;&quot;&gt;————&lt;br style=&quot;font-size: 18px;&quot;&gt;30" style="text;html=1;align=center;verticalAlign=middle;resizable=0;points=[];autosize=1;strokeColor=none;fillColor=none;fontSize=18;strokeWidth=7;opacity=0;fontFamily=Helvetica;" vertex="1" parent="YYFYy1Fa-YksLg5kjB6h-295">
          <mxGeometry x="-5" y="5" width="100" height="80" as="geometry" />
        </mxCell>
        <mxCell id="YYFYy1Fa-YksLg5kjB6h-299" value="" style="group;fontSize=18;fontFamily=Helvetica;" vertex="1" connectable="0" parent="1">
          <mxGeometry x="3265" y="864" width="95" height="90" as="geometry" />
        </mxCell>
        <mxCell id="YYFYy1Fa-YksLg5kjB6h-300" value="" style="rounded=0;whiteSpace=wrap;html=1;fillColor=default;fontSize=18;fontFamily=Helvetica;" vertex="1" parent="YYFYy1Fa-YksLg5kjB6h-299">
          <mxGeometry x="5" y="5" width="80" height="80" as="geometry" />
        </mxCell>
        <mxCell id="YYFYy1Fa-YksLg5kjB6h-301" value="6&lt;br style=&quot;font-size: 18px;&quot;&gt;————&lt;br style=&quot;font-size: 18px;&quot;&gt;40" style="text;html=1;align=center;verticalAlign=middle;resizable=0;points=[];autosize=1;strokeColor=none;fillColor=none;fontSize=18;strokeWidth=7;opacity=0;fontFamily=Helvetica;" vertex="1" parent="YYFYy1Fa-YksLg5kjB6h-299">
          <mxGeometry x="-5" y="5" width="100" height="80" as="geometry" />
        </mxCell>
        <mxCell id="YYFYy1Fa-YksLg5kjB6h-302" value="" style="group;fontSize=18;fontFamily=Helvetica;" vertex="1" connectable="0" parent="1">
          <mxGeometry x="3616" y="864" width="95" height="90" as="geometry" />
        </mxCell>
        <mxCell id="YYFYy1Fa-YksLg5kjB6h-303" value="" style="endArrow=classic;html=1;rounded=0;" edge="1" parent="YYFYy1Fa-YksLg5kjB6h-302">
          <mxGeometry width="50" height="50" relative="1" as="geometry">
            <mxPoint x="73" y="46" as="sourcePoint" />
            <mxPoint x="113" y="46" as="targetPoint" />
          </mxGeometry>
        </mxCell>
        <mxCell id="YYFYy1Fa-YksLg5kjB6h-304" value="" style="rounded=0;whiteSpace=wrap;html=1;fillColor=default;fontSize=18;fontFamily=Helvetica;" vertex="1" parent="YYFYy1Fa-YksLg5kjB6h-302">
          <mxGeometry x="5" y="5" width="80" height="80" as="geometry" />
        </mxCell>
        <mxCell id="YYFYy1Fa-YksLg5kjB6h-305" value="11&lt;br style=&quot;font-size: 18px;&quot;&gt;————&lt;br style=&quot;font-size: 18px;&quot;&gt;50" style="text;html=1;align=center;verticalAlign=middle;resizable=0;points=[];autosize=1;strokeColor=none;fillColor=none;fontSize=18;strokeWidth=7;opacity=0;fontFamily=Helvetica;" vertex="1" parent="YYFYy1Fa-YksLg5kjB6h-302">
          <mxGeometry x="-5" y="5" width="100" height="80" as="geometry" />
        </mxCell>
        <mxCell id="YYFYy1Fa-YksLg5kjB6h-306" value="" style="group;fontSize=18;fontFamily=Helvetica;" vertex="1" connectable="0" parent="1">
          <mxGeometry x="3724" y="864" width="95" height="90" as="geometry" />
        </mxCell>
        <mxCell id="YYFYy1Fa-YksLg5kjB6h-307" value="" style="rounded=0;whiteSpace=wrap;html=1;fillColor=default;fontSize=18;fontFamily=Helvetica;" vertex="1" parent="YYFYy1Fa-YksLg5kjB6h-306">
          <mxGeometry x="5" y="5" width="80" height="80" as="geometry" />
        </mxCell>
        <mxCell id="YYFYy1Fa-YksLg5kjB6h-308" value="12&lt;br style=&quot;font-size: 18px;&quot;&gt;————&lt;br style=&quot;font-size: 18px;&quot;&gt;60" style="text;html=1;align=center;verticalAlign=middle;resizable=0;points=[];autosize=1;strokeColor=none;fillColor=none;fontSize=18;strokeWidth=7;opacity=0;fontFamily=Helvetica;" vertex="1" parent="YYFYy1Fa-YksLg5kjB6h-306">
          <mxGeometry x="-5" y="5" width="100" height="80" as="geometry" />
        </mxCell>
        <mxCell id="YYFYy1Fa-YksLg5kjB6h-309" value="" style="group;fontSize=18;fontFamily=Helvetica;" vertex="1" connectable="0" parent="1">
          <mxGeometry x="3265" y="748" width="95" height="90" as="geometry" />
        </mxCell>
        <mxCell id="YYFYy1Fa-YksLg5kjB6h-310" value="" style="rounded=0;whiteSpace=wrap;html=1;fillColor=default;fontSize=18;fontFamily=Helvetica;" vertex="1" parent="YYFYy1Fa-YksLg5kjB6h-309">
          <mxGeometry x="5" y="5" width="80" height="80" as="geometry" />
        </mxCell>
        <mxCell id="YYFYy1Fa-YksLg5kjB6h-311" value="&lt;div&gt;&lt;span style=&quot;text-align: start;&quot;&gt;&lt;font style=&quot;background-color: rgb(251, 251, 251);&quot;&gt;2&lt;/font&gt;&lt;font style=&quot;color: rgb(32, 33, 34); text-wrap: wrap; background-color: rgb(255, 255, 255); font-size: 23px;&quot;&gt;丨&lt;/font&gt;&lt;font style=&quot;color: rgb(32, 33, 34); text-wrap: wrap; background-color: rgb(255, 255, 255); font-size: 18px;&quot;&gt;21&lt;/font&gt;&lt;/span&gt;&lt;/div&gt;————&lt;br&gt;&lt;span style=&quot;text-wrap: wrap; text-align: start; background-color: rgb(255, 255, 255);&quot;&gt;&lt;font color=&quot;#474747&quot;&gt;6&lt;/font&gt;&lt;/span&gt;&lt;span style=&quot;text-wrap: wrap; color: rgb(32, 33, 34); text-align: start; background-color: rgb(255, 255, 255);&quot;&gt;&lt;font style=&quot;font-size: 23px;&quot;&gt;丨&lt;/font&gt;&lt;font style=&quot;font-size: 18px;&quot;&gt;15&lt;/font&gt;&lt;/span&gt;" style="text;html=1;align=center;verticalAlign=middle;resizable=0;points=[];autosize=1;strokeColor=none;fillColor=none;fontSize=18;strokeWidth=7;opacity=0;fontFamily=Helvetica;" vertex="1" parent="YYFYy1Fa-YksLg5kjB6h-309">
          <mxGeometry x="-5" width="100" height="90" as="geometry" />
        </mxCell>
        <mxCell id="YYFYy1Fa-YksLg5kjB6h-312" value="" style="group;fontSize=18;fontFamily=Helvetica;" vertex="1" connectable="0" parent="1">
          <mxGeometry x="3724" y="748" width="95" height="90" as="geometry" />
        </mxCell>
        <mxCell id="YYFYy1Fa-YksLg5kjB6h-313" value="" style="rounded=0;whiteSpace=wrap;html=1;fillColor=default;fontSize=18;fontFamily=Helvetica;" vertex="1" parent="YYFYy1Fa-YksLg5kjB6h-312">
          <mxGeometry x="5" y="5" width="80" height="80" as="geometry" />
        </mxCell>
        <mxCell id="YYFYy1Fa-YksLg5kjB6h-314" value="&lt;div&gt;&lt;b&gt;&lt;font color=&quot;#ff3333&quot;&gt;&lt;span style=&quot;text-align: start; background-color: rgb(251, 251, 251);&quot;&gt;3&lt;/span&gt;&lt;span style=&quot;text-wrap: wrap; text-align: start; background-color: rgb(255, 255, 255);&quot;&gt;&lt;font style=&quot;font-size: 23px;&quot;&gt;丨&lt;/font&gt;&lt;font style=&quot;font-size: 18px;&quot;&gt;31&lt;/font&gt;&lt;/span&gt;&lt;/font&gt;&lt;/b&gt;&lt;/div&gt;&lt;b&gt;&lt;font color=&quot;#ff3333&quot;&gt;————&lt;br&gt;&lt;span style=&quot;text-wrap: wrap; text-align: start; background-color: rgb(255, 255, 255);&quot;&gt;&lt;font style=&quot;&quot;&gt;8&lt;/font&gt;&lt;font style=&quot;font-size: 23px;&quot;&gt;丨&lt;/font&gt;&lt;font style=&quot;font-size: 18px;&quot;&gt;12&lt;/font&gt;&lt;/span&gt;&lt;/font&gt;&lt;/b&gt;" style="text;html=1;align=center;verticalAlign=middle;resizable=0;points=[];autosize=1;strokeColor=none;fillColor=none;fontSize=18;strokeWidth=7;opacity=0;fontFamily=Helvetica;" vertex="1" parent="YYFYy1Fa-YksLg5kjB6h-312">
          <mxGeometry x="-5" width="100" height="90" as="geometry" />
        </mxCell>
        <mxCell id="YYFYy1Fa-YksLg5kjB6h-315" value="" style="group;fontSize=18;fontFamily=Helvetica;" vertex="1" connectable="0" parent="1">
          <mxGeometry x="3724" y="630" width="95" height="90" as="geometry" />
        </mxCell>
        <mxCell id="YYFYy1Fa-YksLg5kjB6h-316" value="" style="rounded=0;whiteSpace=wrap;html=1;fillColor=default;fontSize=18;fontFamily=Helvetica;" vertex="1" parent="YYFYy1Fa-YksLg5kjB6h-315">
          <mxGeometry x="5" y="5" width="80" height="80" as="geometry" />
        </mxCell>
        <mxCell id="YYFYy1Fa-YksLg5kjB6h-317" value="&lt;div&gt;&lt;span style=&quot;text-align: start;&quot;&gt;&lt;b&gt;&lt;font color=&quot;#ff3333&quot;&gt;&lt;font style=&quot;background-color: rgb(251, 251, 251);&quot;&gt;5&lt;/font&gt;&lt;font style=&quot;text-wrap: wrap; background-color: rgb(255, 255, 255); font-size: 23px;&quot;&gt;丨&lt;/font&gt;&lt;font style=&quot;text-wrap: wrap; background-color: rgb(255, 255, 255); font-size: 18px;&quot;&gt;52&lt;/font&gt;&lt;/font&gt;&lt;/b&gt;&lt;/span&gt;&lt;/div&gt;&lt;b&gt;&lt;font color=&quot;#ff3333&quot;&gt;————&lt;br&gt;&lt;span style=&quot;text-wrap: wrap; text-align: start; background-color: rgb(255, 255, 255);&quot;&gt;6&lt;/span&gt;&lt;span style=&quot;text-wrap: wrap; text-align: start; background-color: rgb(255, 255, 255);&quot;&gt;&lt;font style=&quot;font-size: 23px;&quot;&gt;丨&lt;/font&gt;&lt;font style=&quot;font-size: 18px;&quot;&gt;15&lt;/font&gt;&lt;/span&gt;&lt;/font&gt;&lt;/b&gt;" style="text;html=1;align=center;verticalAlign=middle;resizable=0;points=[];autosize=1;strokeColor=none;fillColor=none;fontSize=18;strokeWidth=7;opacity=0;fontFamily=Helvetica;" vertex="1" parent="YYFYy1Fa-YksLg5kjB6h-315">
          <mxGeometry x="-5" width="100" height="90" as="geometry" />
        </mxCell>
        <mxCell id="YYFYy1Fa-YksLg5kjB6h-318" value="" style="shape=flexArrow;endArrow=classic;html=1;rounded=0;fontSize=16;" edge="1" parent="1">
          <mxGeometry width="50" height="50" relative="1" as="geometry">
            <mxPoint x="3062" y="825" as="sourcePoint" />
            <mxPoint x="3148" y="825" as="targetPoint" />
          </mxGeometry>
        </mxCell>
        <mxCell id="YYFYy1Fa-YksLg5kjB6h-319" value="" style="endArrow=classic;html=1;rounded=0;" edge="1" parent="1">
          <mxGeometry width="50" height="50" relative="1" as="geometry">
            <mxPoint x="3350" y="909.47" as="sourcePoint" />
            <mxPoint x="3390" y="909.47" as="targetPoint" />
          </mxGeometry>
        </mxCell>
        <mxCell id="YYFYy1Fa-YksLg5kjB6h-320" value="" style="group;fontSize=18;fontFamily=Helvetica;" vertex="1" connectable="0" parent="1">
          <mxGeometry x="3501" y="864" width="95" height="90" as="geometry" />
        </mxCell>
        <mxCell id="YYFYy1Fa-YksLg5kjB6h-321" value="" style="endArrow=classic;html=1;rounded=0;" edge="1" parent="YYFYy1Fa-YksLg5kjB6h-320">
          <mxGeometry width="50" height="50" relative="1" as="geometry">
            <mxPoint x="79" y="46" as="sourcePoint" />
            <mxPoint x="119" y="46" as="targetPoint" />
          </mxGeometry>
        </mxCell>
        <mxCell id="YYFYy1Fa-YksLg5kjB6h-322" value="" style="rounded=0;whiteSpace=wrap;html=1;fillColor=default;fontSize=18;fontFamily=Helvetica;" vertex="1" parent="YYFYy1Fa-YksLg5kjB6h-320">
          <mxGeometry x="5" y="5" width="80" height="80" as="geometry" />
        </mxCell>
        <mxCell id="YYFYy1Fa-YksLg5kjB6h-323" value="&lt;font color=&quot;#ff3333&quot;&gt;&lt;b&gt;18&lt;br style=&quot;font-size: 18px;&quot;&gt;————&lt;br style=&quot;font-size: 18px;&quot;&gt;48&lt;/b&gt;&lt;/font&gt;" style="text;html=1;align=center;verticalAlign=middle;resizable=0;points=[];autosize=1;strokeColor=none;fillColor=none;fontSize=18;strokeWidth=7;opacity=0;fontFamily=Helvetica;" vertex="1" parent="YYFYy1Fa-YksLg5kjB6h-320">
          <mxGeometry x="-5" y="5" width="100" height="80" as="geometry" />
        </mxCell>
        <mxCell id="YYFYy1Fa-YksLg5kjB6h-324" style="edgeStyle=orthogonalEdgeStyle;rounded=0;orthogonalLoop=1;jettySize=auto;html=1;exitX=1;exitY=0.5;exitDx=0;exitDy=0;fontSize=16;entryX=0.1;entryY=0.5;entryDx=0;entryDy=0;entryPerimeter=0;endSize=8;strokeColor=#FF3333;strokeWidth=2;" edge="1" parent="YYFYy1Fa-YksLg5kjB6h-320" target="YYFYy1Fa-YksLg5kjB6h-305">
          <mxGeometry relative="1" as="geometry">
            <Array as="points">
              <mxPoint x="-10" y="45" />
              <mxPoint x="-10" y="97" />
              <mxPoint x="100" y="97" />
              <mxPoint x="100" y="45" />
            </Array>
            <mxPoint x="-30" y="45.08999999999992" as="sourcePoint" />
            <mxPoint x="70" y="45.08999999999992" as="targetPoint" />
          </mxGeometry>
        </mxCell>
        <mxCell id="YYFYy1Fa-YksLg5kjB6h-325" value="" style="group;fontSize=18;fontFamily=Helvetica;" vertex="1" connectable="0" parent="1">
          <mxGeometry x="3501" y="748" width="95" height="90" as="geometry" />
        </mxCell>
        <mxCell id="YYFYy1Fa-YksLg5kjB6h-326" value="" style="rounded=0;whiteSpace=wrap;html=1;fillColor=default;fontSize=18;fontFamily=Helvetica;" vertex="1" parent="YYFYy1Fa-YksLg5kjB6h-325">
          <mxGeometry x="5" y="5" width="80" height="80" as="geometry" />
        </mxCell>
        <mxCell id="YYFYy1Fa-YksLg5kjB6h-327" value="&lt;div&gt;&lt;span style=&quot;text-align: start;&quot;&gt;&lt;font style=&quot;background-color: rgb(251, 251, 251);&quot;&gt;2&lt;/font&gt;&lt;font style=&quot;text-wrap: wrap; background-color: rgb(255, 255, 255); font-size: 23px;&quot;&gt;丨&lt;/font&gt;&lt;font style=&quot;text-wrap: wrap; background-color: rgb(255, 255, 255); font-size: 18px;&quot;&gt;26&lt;/font&gt;&lt;/span&gt;&lt;/div&gt;————&lt;br&gt;&lt;span style=&quot;text-wrap: wrap; text-align: start; background-color: rgb(255, 255, 255);&quot;&gt;8&lt;/span&gt;&lt;span style=&quot;text-wrap: wrap; text-align: start; background-color: rgb(255, 255, 255);&quot;&gt;&lt;font style=&quot;font-size: 23px;&quot;&gt;丨&lt;/font&gt;&lt;font style=&quot;font-size: 18px;&quot;&gt;1&lt;/font&gt;&lt;font style=&quot;font-size: 18px;&quot;&gt;8&lt;/font&gt;&lt;/span&gt;" style="text;html=1;align=center;verticalAlign=middle;resizable=0;points=[];autosize=1;strokeColor=none;fillColor=none;fontSize=18;strokeWidth=7;opacity=0;fontFamily=Helvetica;" vertex="1" parent="YYFYy1Fa-YksLg5kjB6h-325">
          <mxGeometry x="-5" width="100" height="90" as="geometry" />
        </mxCell>
        <mxCell id="YYFYy1Fa-YksLg5kjB6h-328" style="edgeStyle=orthogonalEdgeStyle;rounded=0;orthogonalLoop=1;jettySize=auto;html=1;exitX=1;exitY=0.5;exitDx=0;exitDy=0;fontSize=16;entryX=0.12;entryY=0.5;entryDx=0;entryDy=0;entryPerimeter=0;endSize=8;strokeColor=#FF3333;strokeWidth=2;" edge="1" parent="YYFYy1Fa-YksLg5kjB6h-325" target="YYFYy1Fa-YksLg5kjB6h-314">
          <mxGeometry relative="1" as="geometry">
            <mxPoint x="89" y="45.07999999999993" as="targetPoint" />
            <Array as="points">
              <mxPoint x="-70" y="45" />
              <mxPoint x="-70" y="-5" />
              <mxPoint x="160" y="-5" />
              <mxPoint x="160" y="45" />
            </Array>
            <mxPoint x="-151" y="45.07999999999993" as="sourcePoint" />
          </mxGeometry>
        </mxCell>
        <mxCell id="YYFYy1Fa-YksLg5kjB6h-329" value="" style="group;fontSize=18;fontFamily=Helvetica;" vertex="1" connectable="0" parent="1">
          <mxGeometry x="3385" y="864" width="95" height="90" as="geometry" />
        </mxCell>
        <mxCell id="YYFYy1Fa-YksLg5kjB6h-330" value="" style="rounded=0;whiteSpace=wrap;html=1;fillColor=default;fontSize=18;fontFamily=Helvetica;" vertex="1" parent="YYFYy1Fa-YksLg5kjB6h-329">
          <mxGeometry x="5" y="5" width="80" height="80" as="geometry" />
        </mxCell>
        <mxCell id="YYFYy1Fa-YksLg5kjB6h-331" value="8&lt;br style=&quot;font-size: 18px;&quot;&gt;————&lt;br style=&quot;font-size: 18px;&quot;&gt;45" style="text;html=1;align=center;verticalAlign=middle;resizable=0;points=[];autosize=1;strokeColor=none;fillColor=none;fontSize=18;strokeWidth=7;opacity=0;fontFamily=Helvetica;" vertex="1" parent="YYFYy1Fa-YksLg5kjB6h-329">
          <mxGeometry x="-5" y="5" width="100" height="80" as="geometry" />
        </mxCell>
        <mxCell id="YYFYy1Fa-YksLg5kjB6h-332" value="" style="endArrow=classic;html=1;rounded=0;entryX=0.05;entryY=0.556;entryDx=0;entryDy=0;entryPerimeter=0;endSize=8;" edge="1" parent="1">
          <mxGeometry width="50" height="50" relative="1" as="geometry">
            <mxPoint x="3157" y="677.23" as="sourcePoint" />
            <mxPoint x="3729" y="677.27" as="targetPoint" />
          </mxGeometry>
        </mxCell>
        <mxCell id="YYFYy1Fa-YksLg5kjB6h-333" value="" style="endArrow=classic;html=1;rounded=0;entryX=0.05;entryY=0.556;entryDx=0;entryDy=0;entryPerimeter=0;endSize=8;" edge="1" parent="1">
          <mxGeometry width="50" height="50" relative="1" as="geometry">
            <mxPoint x="3150" y="794" as="sourcePoint" />
            <mxPoint x="3269" y="794.27" as="targetPoint" />
          </mxGeometry>
        </mxCell>
      </root>
    </mxGraphModel>
  </diagram>
</mxfile>
